<svg width="200" height="200" viewBox="0 0 200 200" xmlns="http://www.w3.org/2000/svg">
  <!-- Cat body -->
  <ellipse cx="100" cy="130" rx="45" ry="35" fill="#ff6b35" stroke="#333" stroke-width="2"/>

  <!-- Cat head -->
  <circle cx="100" cy="80" r="35" fill="#ff6b35" stroke="#333" stroke-width="2"/>

  <!-- Cat ears -->
  <polygon points="75,55 85,35 95,55" fill="#ff6b35" stroke="#333" stroke-width="2"/>
  <polygon points="105,55 115,35 125,55" fill="#ff6b35" stroke="#333" stroke-width="2"/>
  <polygon points="78,52 85,42 92,52" fill="#ff8566"/>
  <polygon points="108,52 115,42 122,52" fill="#ff8566"/>

  <!-- Cat face -->
  <!-- Eyes -->
  <circle cx="90" cy="75" r="6" fill="#333"/>
  <circle cx="110" cy="75" r="6" fill="#333"/>
  <circle cx="92" cy="73" r="2" fill="white"/>
  <circle cx="112" cy="73" r="2" fill="white"/>

  <!-- Nose -->
  <polygon points="97,85 100,82 103,85 100,88" fill="#ff1744"/>

  <!-- Mouth -->
  <path d="M100,88 Q95,95 90,92" stroke="#333" stroke-width="2" fill="none"/>
  <path d="M100,88 Q105,95 110,92" stroke="#333" stroke-width="2" fill="none"/>

  <!-- Whiskers -->
  <line x1="70" y1="80" x2="55" y2="78" stroke="#333" stroke-width="2"/>
  <line x1="70" y1="88" x2="55" y2="90" stroke="#333" stroke-width="2"/>
  <line x1="130" y1="80" x2="145" y2="78" stroke="#333" stroke-width="2"/>
  <line x1="130" y1="88" x2="145" y2="90" stroke="#333" stroke-width="2"/>

  <!-- Cat legs -->
  <ellipse cx="80" cy="155" rx="8" ry="20" fill="#ff6b35" stroke="#333" stroke-width="2"/>
  <ellipse cx="120" cy="155" rx="8" ry="20" fill="#ff6b35" stroke="#333" stroke-width="2"/>
  <ellipse cx="85" cy="160" rx="8" ry="15" fill="#ff6b35" stroke="#333" stroke-width="2"/>
  <ellipse cx="115" cy="160" rx="8" ry="15" fill="#ff6b35" stroke="#333" stroke-width="2"/>

  <!-- Cat tail -->
  <path d="M55,130 Q30,120 25,140 Q30,160 55,150" fill="#ff6b35" stroke="#333" stroke-width="2"/>

  <!-- Cat paws -->
  <circle cx="80" cy="172" r="6" fill="#333"/>
  <circle cx="120" cy="172" r="6" fill="#333"/>
  <circle cx="85" cy="172" r="6" fill="#333"/>
  <circle cx="115" cy="172" r="6" fill="#333"/>
</svg>